<?xml version="1.0" standalone="no"?>
<!DOCTYPE svg PUBLIC "-//W3C//DTD SVG 20010904//EN"
 "http://www.w3.org/TR/2001/REC-SVG-20010904/DTD/svg10.dtd">
<svg version="1.0" xmlns="http://www.w3.org/2000/svg"
 width="75.000000pt" height="75.000000pt" viewBox="0 0 75.000000 75.000000"
 preserveAspectRatio="xMidYMid meet">
<metadata>
Created by potrace 1.14, written by Peter Selinger 2001-2017
</metadata>
<g transform="translate(0.000000,75.000000) scale(0.100000,-0.100000)"
fill="#000000" stroke="none">
<path d="M190 595 c0 -10 104 -105 109 -99 6 5 -67 82 -91 95 -10 5 -18 7 -18
4z"/>
<path d="M230 596 c0 -11 61 -68 67 -62 7 7 -46 66 -59 66 -4 0 -8 -2 -8 -4z"/>
<path d="M276 586 c6 -16 34 -30 34 -18 0 5 -5 13 -12 20 -16 16 -29 15 -22
-2z"/>
<path d="M174 563 c0 -10 -4 -28 -8 -39 -5 -18 4 -33 50 -79 31 -31 59 -53 62
-50 3 3 -21 32 -53 65 -33 33 -56 60 -51 60 5 0 29 -21 54 -46 34 -35 46 -43
53 -33 5 8 9 19 9 24 0 10 -101 115 -111 115 -2 0 -5 -8 -5 -17z m63 -59 c25
-25 43 -47 41 -50 -2 -2 -26 19 -53 46 -27 28 -45 50 -41 50 5 0 29 -21 53
-46z"/>
<path d="M590 517 c0 -4 18 -25 41 -48 42 -43 70 -47 29 -4 -24 25 -16 35 10
13 8 -7 6 -3 -5 10 -11 13 -21 19 -23 13 -2 -7 -13 -4 -28 5 -13 9 -24 14 -24
11z"/>
<path d="M405 501 c-3 -6 -11 -9 -16 -6 -5 4 -9 2 -9 -4 0 -14 88 -101 102
-101 7 0 -10 23 -37 50 -27 28 -46 50 -41 50 4 0 25 -18 47 -39 21 -22 41 -36
43 -32 3 4 -14 27 -38 50 -28 27 -46 39 -51 32z"/>
<path d="M451 493 c19 -24 53 -52 58 -48 5 6 -52 65 -63 65 -5 0 -2 -8 5 -17z"/>
<path d="M560 505 c0 -10 113 -115 119 -110 2 3 -20 30 -49 60 -49 50 -70 65
-70 50z"/>
<path d="M512 491 c-10 -6 -9 -11 4 -22 16 -12 17 -12 11 4 -3 9 -4 17 -1 17
8 0 134 -128 134 -137 0 -4 -22 15 -50 42 -65 64 -65 44 0 -23 28 -29 52 -52
53 -52 1 0 3 12 4 28 1 21 -12 41 -60 90 -62 63 -72 68 -95 53z"/>
<path d="M166 458 c10 -12 36 -39 57 -58 20 -20 37 -40 37 -45 0 -5 -25 15
-55 45 -30 30 -55 49 -55 43 0 -8 106 -123 114 -123 0 0 2 12 3 28 1 20 -11
40 -50 80 -50 51 -89 74 -51 30z"/>
<path d="M386 438 c34 -41 87 -88 93 -83 6 7 -90 105 -103 105 -5 0 -1 -10 10
-22z"/>
<path d="M370 423 c0 -7 20 -32 45 -56 25 -25 45 -48 45 -53 0 -5 -22 14 -50
41 -27 27 -50 44 -50 38 0 -9 94 -113 103 -113 1 0 3 13 4 28 2 23 -9 40 -48
78 -27 26 -49 43 -49 37z"/>
<path d="M140 412 c0 -15 111 -124 119 -117 3 3 -23 34 -57 68 -34 34 -62 56
-62 49z"/>
<path d="M555 375 c0 -26 76 -115 98 -115 6 0 -13 25 -43 55 -30 30 -51 55
-46 55 5 0 26 -18 49 -40 22 -22 42 -38 45 -35 6 6 -87 105 -98 105 -3 0 -6
-11 -5 -25z"/>
<path d="M135 352 c1 -20 18 -44 54 -80 29 -29 54 -52 55 -52 0 0 2 12 3 28 1
20 -11 40 -50 80 -28 28 -54 52 -58 52 -3 0 -5 -13 -4 -28z m64 -48 c23 -25
41 -47 39 -49 -2 -3 -26 18 -53 45 -27 28 -45 50 -40 50 6 0 30 -21 54 -46z"/>
<path d="M355 330 c1 -21 15 -41 45 -69 61 -56 64 -41 5 19 -27 28 -45 50 -41
50 5 0 27 -18 48 -41 22 -23 42 -38 46 -35 6 6 -86 106 -99 106 -3 0 -5 -13
-4 -30z"/>
<path d="M540 325 c0 -10 122 -125 132 -125 5 0 -18 29 -53 65 -56 58 -79 76
-79 60z"/>
<path d="M120 314 c0 -16 110 -128 118 -120 3 4 -22 35 -56 69 -34 34 -62 57
-62 51z"/>
<path d="M546 278 c38 -44 98 -98 108 -98 6 0 -16 27 -49 60 -56 57 -100 85
-59 38z"/>
<path d="M340 285 c0 -11 102 -106 108 -101 3 4 -16 29 -43 56 -44 45 -65 59
-65 45z"/>
<path d="M115 255 c0 -25 52 -91 63 -80 3 3 -10 21 -28 40 -46 47 -31 44 22
-4 23 -22 45 -38 47 -35 5 5 -89 104 -99 104 -3 0 -6 -11 -5 -25z"/>
<path d="M530 263 c0 -15 91 -105 98 -98 4 3 -17 29 -46 58 -29 28 -52 46 -52
40z"/>
<path d="M346 238 c29 -34 68 -67 73 -62 6 6 -71 84 -83 84 -5 0 -1 -10 10
-22z"/>
<path d="M330 223 c0 -16 38 -55 50 -51 6 2 -3 16 -20 33 -16 16 -30 24 -30
18z"/>
<path d="M520 226 c0 -3 14 -19 32 -35 36 -33 52 -33 22 0 -19 21 -54 44 -54
35z"/>
<path d="M100 213 c0 -12 38 -48 45 -41 3 2 -6 15 -20 28 -14 13 -25 19 -25
13z"/>
<path d="M320 192 c0 -5 7 -15 15 -22 8 -7 15 -8 15 -2 0 5 -7 15 -15 22 -8 7
-15 8 -15 2z"/>
</g>
</svg>
